<?xml version="1.0" encoding="UTF-8"?>
<svg id="_Слой_1" data-name="Слой 1" xmlns="http://www.w3.org/2000/svg" viewBox="0 0 915.46 898.64">
  <defs>
    <style>
      .cls-1 {
        stroke-width: 0px;
      }
    </style>
  </defs>
  <g>
    <path class="cls-1" d="m555.34,411.39s-2.6,27.02-10.96,54.91l-67.17-118.28-88.01-163.75L287.84,0l69.78,163.86-79.11-37,110.58,112.64,64.68,149.21c17.91-3.36,25.07,10.63,25.07,10.63l47.64,106.46c-8.14,11.72-18.45,19.97-31.36,20.51,0,0,52.2,37.98,33.42,93.54,0,0,98.64,36.9,107.76-42,9.22-78.68-80.95-166.47-80.95-166.47Zm61.53,160.28c-5.75,48.94-68.04,33.64-68.04,33.64,11.83-34.51-23.55-72.82-23.55-72.82,31.04-1.41,43.95-70.65,43.95-70.65,0,0,53.28,60.88,47.64,109.82Z"/>
    <path class="cls-1" d="m432.6,366.79l-58.06,99.51c-7.16-25.94-11.61-54.91-11.61-54.91,0,0-90.18,87.9-81.06,166.68,9.12,78.78,107.76,42,107.76,42-18.67-55.56,33.42-93.54,33.42-93.54-13.56-.65-21.7-8.36-30.71-20.51l53.5-112.1-13.24-27.13Zm-63.05,238.41s-62.29,15.3-68.04-33.64c-5.75-48.94,47.75-109.82,47.75-109.82,0,0,12.81,69.23,43.95,70.65-.11.11-35.49,38.42-23.66,72.82Z"/>
    <path class="cls-1" d="m466.57,305.7l16.82,32.77,97.56-153.01-55.89,38.52L627.61,0l-168.2,290.5,23.98-12.26-16.82,27.46Z"/>
  </g>
  <g id="_РҐРЈVР_NETTO" data-name="_РҐРЈVРNETTO">
    <path class="cls-1" d="m71.19,695.27l-25.28,84.43-23.44-84.43H2.6l27.78,98.32L0,895.6h21.05l24.63-84.43,24.96,84.43h20.18l-29.41-101.68,30.06-98.64h-20.29Zm121,.22l-30.17,144.55-29.84-144.55h-21.7l37.33,163.21c-.43,4.02-1.09,7.49-2.06,10.31-.87,2.82-2.17,5.32-3.69,7.6-2.06,3.58-4.67,5.97-8.03,6.95-3.26.98-6.4,1.52-9.33,1.52-2.28,0-4.34-.11-6.29-.33s-3.47-.43-4.56-.65v11.83c2.28.65,5.1,1.3,8.68,1.84,3.47.54,7.16.87,10.96.87,12.48,0,21.7-3.47,27.89-10.53,6.08-7.05,11.07-18.88,14.98-35.59l36.35-157.13-20.51.11h0Zm48.94,0l-37.98,200.11h21.05l30.06-169.51,30.06,169.51h21.38l-37.33-200.11h-27.24Zm100.27,156.59v-156.7h-18.01v200.43h18.67l57.73-151.27v151.27h18.01v-200.43h-18.01l-58.38,156.7h0Zm172.22,0l-58.27-156.7h-17.36v200.43h18.01v-150.84l57.73,150.84h18.01v-200.43h-18.01l-.11,156.7h0Zm57.95-141.4h45.25v-15.3h-64.68v200.43h64.68v-15.3h-45.25v-81.06h45.58v-16.93h-45.58c0,.11,0-71.84,0-71.84Zm55.13.11h33.64v184.91h21.38v-184.91h34.29v-15.3h-89.2l-.11,15.3h0Zm100.81,0h33.64v184.91h21.38v-184.91h34.29v-15.3h-89.31v15.3h0Zm169.51,143.68c0,8.79-1.09,15.41-3.36,19.75-2.17,4.45-5.32,7.38-9.22,8.79s-8.57,2.17-13.78,2.17-9.88-.76-13.78-2.17c-3.91-1.41-7.05-4.45-9.22-8.79-2.17-4.45-3.36-10.96-3.36-19.75v-118.61c0-8.79,1.09-15.41,3.36-19.75,2.17-4.45,5.32-7.38,9.22-8.79s8.57-2.17,13.78-2.17,9.55.76,13.67,2.17c4.02,1.41,7.16,4.45,9.44,8.79,2.17,4.45,3.36,10.96,3.36,19.75l-.11,118.61h0Zm12.59-143.35c-3.8-6.08-9.01-10.31-15.52-12.48-6.51-2.28-14-3.36-22.46-3.36s-15.95,1.09-22.57,3.15-11.83,6.19-15.63,12.26-5.75,15.3-5.75,27.56v109.28c0,14,1.95,24.42,5.75,31.25,3.8,6.95,8.9,11.39,15.41,13.56,6.51,2.17,13.89,3.26,22.35,3.26s16.49-1.09,23.01-3.26c6.51-2.17,11.72-6.73,15.52-13.56,3.8-6.95,5.75-17.47,5.75-31.69v-108.84c0-11.94-1.95-21.05-5.86-27.13h0Z"/>
  </g>
</svg>