<svg width="182" height="321" viewBox="0 0 182 321" fill="none" xmlns="http://www.w3.org/2000/svg">
<g clip-path="url(#clip0_59_2)">
<path d="M140.488 210.799C140.488 210.799 139.178 224.517 134.9 238.665L100.83 178.649L56.1497 95.5674L4.78247 2.0567L40.1799 85.2055L0.03125 66.4341L56.1497 123.619L88.9602 199.364C98.0231 197.64 101.692 204.756 101.692 204.756L125.871 258.789C121.745 264.747 116.529 268.905 109.977 269.201C109.977 269.201 136.456 288.48 126.962 316.675C126.962 316.675 177.035 335.379 181.643 295.385C186.25 255.391 140.488 210.799 140.488 210.799ZM171.718 292.148C168.818 316.979 137.183 309.195 137.183 309.195C143.16 291.692 125.228 272.252 125.228 272.252C140.987 271.534 147.505 236.425 147.505 236.425C147.505 236.425 174.617 267.317 171.718 292.148Z" fill="white"/>
<path d="M78.2416 188.166L48.7948 238.656C45.1341 225.505 42.9191 210.791 42.9191 210.791C42.9191 210.791 -2.84307 255.391 1.76443 295.385C6.37193 335.379 56.4457 316.675 56.4457 316.675C46.9518 288.48 73.4301 269.201 73.4301 269.201C66.5484 268.888 62.4144 264.975 57.8238 258.789L84.9542 201.959L78.2416 188.166ZM46.2247 309.195C46.2247 309.195 14.5894 316.979 11.6896 292.148C8.78982 267.316 35.9022 236.425 35.9022 236.425C35.9022 236.425 42.4203 271.542 58.1788 272.252C58.1788 272.252 40.2476 291.691 46.2247 309.195Z" fill="white"/>
<path d="M95.4693 157.167L104.025 173.824L153.511 96.1568L125.159 115.733L177.189 2.05659L91.8276 149.499L104.025 143.276L95.4693 157.167Z" fill="white"/>
</g>
<defs>
<clipPath id="clip0_59_2">
<rect width="182" height="321" fill="white"/>
</clipPath>
</defs>
</svg>
