<?xml version="1.0" encoding="UTF-8"?>
<svg id="_Слой_1" data-name=" Слой 1" xmlns="http://www.w3.org/2000/svg" viewBox="0 0 1355.09 327.6">
  <defs>
    <style>
      .cls-1 {
        fill: none;
        stroke: #fff;
        stroke-linecap: round;
        stroke-miterlimit: 10;
        stroke-width: 16px;
      }

      .cls-2 {
        fill: #fff;
        stroke-width: 0px;
      }
    </style>
  </defs>
  <path class="cls-2" d="m338.69,187.57c-23.95,4.61-40.11,25.3-36.08,46.21s26.72,34.11,50.67,29.5c20.78-4,642.57-153.33,807.2-192.89,2.31-.56,1.65-3.98-.7-3.64-167.54,24.44-800.31,116.81-821.08,120.81h0Zm10.69,51.81c-8.92,1.72-17.35-3.2-18.85-10.97s4.51-15.47,13.42-17.19c8.91-1.72,98.35-18.95,101.06-4.87s-86.73,31.31-95.64,33.03Z"/>
  <path class="cls-1" d="m8,168.03c27.52-39.17,60.8-75.15,101.92-99.68,41.12-24.52,90.74-36.83,137.69-27.48,53.12,10.58,105.72,49.91,132.17,97.09,17.52,31.25,22.81,71.01,6.71,103.01-18.78,37.33-64.15,56.9-105.61,51.73-74.51-9.28-111.31-85.6-72.65-149.64,14.84-24.59,37.83-43.61,63.35-56.78,39.74-20.51,85.37-24.98,130.01-27.67,50.45-3.03,85.21,1.63,129.78,5.26,44.34,3.62,98.33,11.57,126.74,45.8,23.21,27.96,23.97,71.89.84,100.16-21.72,26.55-61.95,35.94-93.18,21.76-27.97-12.7-46.61-41.96-50.21-72.46-7.51-63.55,40.86-121.19,98.57-141.13,54.05-18.67,114.63-9.46,167.06,13.38,61.62,26.84,123.01,69.57,165.81,121.29,14.37,17.36,27.66,36.67,31.8,58.83,4.61,24.7-5.8,58.01-32.9,64.84-15.26,3.84-32.06-1.98-43.18-13.11s-16.84-26.93-17.6-42.65c-2.81-58.69,50.61-85.9,101.23-89.97,143.65-11.57,281.51,72.35,360.74,188.99"/>
</svg>