<?xml version="1.0" encoding="UTF-8"?>
<svg id="_Слой_1" data-name=" Слой 1" xmlns="http://www.w3.org/2000/svg" viewBox="0 0 1385.34 545.54">
  <defs>
    <style>
      .cls-1 {
        fill: #fff;
        stroke: #fff;
        stroke-linecap: square;
        stroke-miterlimit: 500;
        stroke-width: 17px;
      }
    </style>
  </defs>
  <path class="cls-1" d="m483.53,349.62c-11.59-3.7-26.05-17.13-26.99-20.58,0,0-18.83,20.46-82.82,14.08,0,0-49.36,88.64,47.47,97.24,129.38,19.66,180.9-78.25,180.9-78.25,0,0-33.65.44-68.68-3.04l143.41-58.1,335.46-130.85-112.85,29.65,41.96-59.66-134.27,88.64-323.59,120.86Z"/>
  <path class="cls-1" d="m807.12,301.09l134.27,88.64-41.96-59.66,112.85,29.65-335.46-130.85-143.41-58.1c35.03-3.48,68.68-3.04,68.68-3.04,0,0-51.53-97.91-180.9-78.25-96.83,8.6-47.47,97.24-47.47,97.24,64-6.37,82.82,14.08,82.82,14.08.94-3.44,15.41-16.87,26.99-20.58l323.59,120.86Z"/>
</svg>