<?xml version="1.0" encoding="utf-8"?>
<!-- Generator: Adobe Illustrator 28.0.0, SVG Export Plug-In . SVG Version: 6.00 Build 0)  -->
<svg version="1.1" id="_Слой_1" xmlns="http://www.w3.org/2000/svg" xmlns:xlink="http://www.w3.org/1999/xlink" x="0px"
	 y="0px" viewBox="0 0 915.5 203.4" style="enable-background:new 0 0 915.5 203.4;" xml:space="preserve">
<style type="text/css">
	.st0{fill:#FFFFFF;}
</style>
<g id="_РҐРЈVР_NETTO">
	<path class="st0" d="M71.2,0L45.9,84.4L22.5,0H2.6l27.8,98.3L0,200.3h21l24.6-84.4l25,84.4h20.2L61.4,98.6L91.5,0H71.2z M192.2,0.2
		L162,144.8L132.2,0.2h-21.7l37.3,163.2c-0.4,4-1.1,7.5-2.1,10.3c-0.9,2.8-2.2,5.3-3.7,7.6c-2.1,3.6-4.7,6-8,6.9
		c-3.3,1-6.4,1.5-9.3,1.5c-2.3,0-4.3-0.1-6.3-0.3s-3.5-0.4-4.6-0.6v11.8c2.3,0.6,5.1,1.3,8.7,1.8c3.5,0.5,7.2,0.9,11,0.9
		c12.5,0,21.7-3.5,27.9-10.5c6.1-7.1,11.1-18.9,15-35.6L212.7,0.1L192.2,0.2L192.2,0.2z M241.1,0.2l-38,200.1h21.1l30.1-169.5
		l30.1,169.5h21.4L268.4,0.2H241.1L241.1,0.2z M341.4,156.8V0.1h-18v200.4h18.7l57.7-151.3v151.3h18V0.1h-18L341.4,156.8
		L341.4,156.8L341.4,156.8z M513.6,156.8L455.3,0.1H438v200.4h18V49.7l57.7,150.8h18V0.1h-18L513.6,156.8L513.6,156.8L513.6,156.8z
		 M571.6,15.4h45.2V0.1h-64.7v200.4h64.7v-15.3h-45.2v-81.1h45.6V87.2h-45.6C571.6,87.4,571.6,15.4,571.6,15.4z M626.7,15.5h33.6
		v184.9h21.4V15.5H716V0.2h-89.2L626.7,15.5C626.7,15.5,626.7,15.5,626.7,15.5z M727.5,15.5h33.6v184.9h21.4V15.5h34.3V0.2h-89.3
		V15.5C727.5,15.5,727.5,15.5,727.5,15.5z M897,159.2c0,8.8-1.1,15.4-3.4,19.8c-2.2,4.4-5.3,7.4-9.2,8.8s-8.6,2.2-13.8,2.2
		s-9.9-0.8-13.8-2.2c-3.9-1.4-7-4.4-9.2-8.8c-2.2-4.4-3.4-11-3.4-19.8V40.6c0-8.8,1.1-15.4,3.4-19.8c2.2-4.5,5.3-7.4,9.2-8.8
		s8.6-2.2,13.8-2.2s9.5,0.8,13.7,2.2c4,1.4,7.2,4.4,9.4,8.8c2.2,4.5,3.4,11,3.4,19.8L897,159.2L897,159.2z M909.6,15.8
		c-3.8-6.1-9-10.3-15.5-12.5c-6.5-2.3-14-3.4-22.5-3.4s-16,1.1-22.6,3.2s-11.8,6.2-15.6,12.3s-5.8,15.3-5.8,27.6v109.3
		c0,14,2,24.4,5.8,31.2c3.8,6.9,8.9,11.4,15.4,13.6c6.5,2.2,13.9,3.3,22.3,3.3s16.5-1.1,23-3.3c6.5-2.2,11.7-6.7,15.5-13.6
		c3.8-6.9,5.8-17.5,5.8-31.7V43C915.5,31,913.5,21.9,909.6,15.8L909.6,15.8L909.6,15.8z"/>
</g>
</svg>
